Coordinates
version=1
nRows=26
nColumns=24
inDegrees=yes

Units are S.I. units (second, meters, Newtons, ...)
Angles are in degrees.

endheader
time	pelvis_tilt	pelvis_list	pelvis_rotation	pelvis_tx	pelvis_ty	pelvis_tz	hip_flexion_r	hip_adduction_r	hip_rotation_r	knee_angle_r	ankle_angle_r	subtalar_angle_r	mtp_angle_r	hip_flexion_l	hip_adduction_l	hip_rotation_l	knee_angle_l	ankle_angle_l	subtalar_angle_l	mtp_angle_l	lumbar_extension	lumbar_bending	lumbar_rotation
      1.09000000	    -10.68380753	     -4.52609492	     -1.50938326	      0.08791070	      0.96418972	      0.04127540	     20.18667092	      9.98824066	      4.33238311	    -19.20941869	      6.63662350	      0.00000000	      0.00000000	     25.54656976	     -9.27067115	     -5.34056623	    -61.43296021	     -8.58859708	      0.00000000	      0.00000000	      8.04538349	      2.48355272	      2.42373163
      1.10000000	    -10.65617471	     -4.32146985	     -1.38562702	      0.08685270	      0.96472954	      0.04165723	     19.56785597	      9.80142819	      4.46562373	    -18.90931355	      6.89559422	      0.00000000	      0.00000000	     26.58263762	     -9.12040916	     -5.39227433	    -61.16199528	     -6.48509404	      0.00000000	      0.00000000	      7.99903898	      2.16743986	      2.47984037
      1.11000000	    -10.63034243	     -4.10216953	     -1.25373503	      0.08560456	      0.96526080	      0.04200381	     18.96791345	      9.59734510	      4.55575416	    -18.61479819	      7.13428953	      0.00000000	      0.00000000	     27.60677220	     -8.93763295	     -5.45554844	    -60.67979339	     -4.79205115	      0.00000000	      0.00000000	      7.91966224	      1.83388362	      2.53856924
      1.12000000	    -10.60821622	     -3.89085854	     -1.11421964	      0.08446306	      0.96580665	      0.04214940	     18.42633600	      9.38993322	      4.62972287	    -18.46091954	      7.37189108	      0.00000000	      0.00000000	     28.49227175	     -8.69453667	     -5.45680103	    -59.82995663	     -3.14649020	      0.00000000	      0.00000000	      7.86523904	      1.54722683	      2.59200236
      1.13000000	    -10.60643359	     -3.67547676	     -0.97801204	      0.08324233	      0.96633767	      0.04227924	     17.88411605	      9.18097026	      4.72309747	    -18.25247340	      7.60873525	      0.00000000	      0.00000000	     29.35757065	     -8.42910203	     -5.43256112	    -58.74412362	     -1.98401729	      0.00000000	      0.00000000	      7.82696002	      1.25988424	      2.63417582
      1.14000000	    -10.59417939	     -3.35512554	     -0.81769447	      0.08196624	      0.96679062	      0.04220891	     17.36962365	      8.84251516	      4.79727543	    -18.11173873	      7.88964414	      0.00000000	      0.00000000	     30.15023442	     -8.00745637	     -5.40764776	    -57.48926565	     -0.76323734	      0.00000000	      0.00000000	      7.75826530	      0.86340057	      2.69805288
      1.15000000	    -10.60186835	     -3.04929946	     -0.69207684	      0.08065396	      0.96723004	      0.04209415	     16.89637969	      8.53116189	      4.89640197	    -18.00153790	      8.18177741	      0.00000000	      0.00000000	     30.86077086	     -7.57835436	     -5.35194188	    -55.94953902	      0.04555857	      0.00000000	      0.00000000	      7.69720918	      0.51484012	      2.75823763
      1.16000000	    -10.65964470	     -2.77861110	     -0.56891608	      0.07937597	      0.96755346	      0.04190508	     16.42752551	      8.24984822	      5.05595828	    -17.78493654	      8.44981006	      0.00000000	      0.00000000	     31.56086641	     -7.16087636	     -5.23862521	    -54.22085175	      0.64730616	      0.00000000	      0.00000000	      7.70458577	      0.22333029	      2.80216012
      1.17000000	    -10.73086407	     -2.48922124	     -0.45562633	      0.07812047	      0.96780849	      0.04160328	     15.99132705	      7.94258865	      5.22669409	    -17.60770392	      8.72237793	      0.00000000	      0.00000000	     32.18616197	     -6.70602675	     -5.10026212	    -52.30895310	      1.17916734	      0.00000000	      0.00000000	      7.73132259	     -0.07110110	      2.86183885
      1.18000000	    -10.76684879	     -2.50176168	     -0.43830682	      0.07664411	      0.96789429	      0.04163089	     15.65088054	      8.00471457	      5.32571557	    -17.68072810	      8.87260580	      0.00000000	      0.00000000	     32.79857012	     -6.62957955	     -4.87537897	    -50.37450276	      1.42189121	      0.00000000	      0.00000000	      7.65251091	     -0.02583470	      2.96845502
      1.19000000	    -10.91907476	     -1.94730470	     -0.34822298	      0.07553451	      0.96796628	      0.04122775	     15.22887158	      7.40862709	      5.58929056	    -17.36377603	      9.25392468	      0.00000000	      0.00000000	     33.24929780	     -5.85279871	     -4.70767772	    -47.99168104	      1.99686700	      0.00000000	      0.00000000	      7.78672552	     -0.61969134	      3.02880037
      1.20000000	    -10.97083869	     -1.99729323	     -0.38497750	      0.07403978	      0.96781290	      0.04118141	     14.93592330	      7.50606000	      5.68190775	    -17.48536971	      9.42501817	      0.00000000	      0.00000000	     33.76218260	     -5.82042319	     -4.44009246	    -45.85667161	      2.18533301	      0.00000000	      0.00000000	      7.71764351	     -0.49529029	      3.15636564
      1.21000000	    -11.10023051	     -1.33132162	     -0.40195262	      0.07289932	      0.96777477	      0.04077636	     14.57629169	      6.79843945	      5.92901026	    -17.34784083	      9.87716026	      0.00000000	      0.00000000	     33.97770266	     -4.98264402	     -4.31193762	    -43.12237609	      2.47245751	      0.00000000	      0.00000000	      7.80600843	     -1.18078418	      3.29229180
      1.22000000	    -11.19647961	     -1.42186816	     -0.48763241	      0.07146494	      0.96736337	      0.04076799	     14.29296535	      6.93804699	      6.05467098	    -17.40011732	     10.08192518	      0.00000000	      0.00000000	     34.41499443	     -5.01309015	     -3.98895340	    -40.82639906	      2.62915738	      0.00000000	      0.00000000	      7.78815831	     -1.00260533	      3.40498917
      1.23000000	    -11.34906082	     -0.94972262	     -0.54391083	      0.07039130	      0.96704423	      0.04048986	     13.92944680	      6.44069243	      6.31156638	    -17.19883087	     10.43093605	      0.00000000	      0.00000000	     34.58696720	     -4.42819973	     -3.77103714	    -38.02072077	      2.66541809	      0.00000000	      0.00000000	      7.90605659	     -1.47144122	      3.52571737
      1.24000000	    -11.44340835	     -0.75460654	     -0.67667380	      0.06912075	      0.96660069	      0.04041559	     13.60747783	      6.26000856	      6.44969029	    -17.19211398	     10.73964472	      0.00000000	      0.00000000	     34.75186297	     -4.20145780	     -3.53913282	    -35.33979808	      2.56771797	      0.00000000	      0.00000000	      7.90744494	     -1.61127885	      3.64614372
      1.25000000	    -11.58564465	     -0.88376824	     -0.80795527	      0.06777698	      0.96585168	      0.04044997	     13.33487330	      6.42737642	      6.54326446	    -17.17097896	     10.95282929	      0.00000000	      0.00000000	     35.09569754	     -4.32275490	     -3.21036901	    -32.95309572	      2.67177897	      0.00000000	      0.00000000	      7.94528949	     -1.39064214	      3.71945340
      1.26000000	    -11.76314922	     -0.99675772	     -0.95216494	      0.06652035	      0.96502934	      0.04042647	     13.06937527	      6.56838027	      6.63376234	    -17.10452163	     11.17334041	      0.00000000	      0.00000000	     35.37792124	     -4.43214883	     -2.89497766	    -30.46042477	      2.75162349	      0.00000000	      0.00000000	      8.03784539	     -1.16951366	      3.74397096
      1.27000000	    -11.86777312	     -0.51141227	     -1.08283918	      0.06556891	      0.96452422	      0.04015233	     12.65855164	      6.03007069	      6.74932438	    -16.89999601	     11.42346524	      0.00000000	      0.00000000	     35.25373025	     -3.93756984	     -2.74178541	    -27.43503227	      2.02435745	      0.00000000	      0.00000000	      8.09656693	     -1.64159157	      3.81743308
      1.28000000	    -12.03503279	     -0.71498691	     -1.25141529	      0.06436951	      0.96351985	      0.04014874	     12.39616784	      6.26427114	      6.77073222	    -16.87702926	     11.66367785	      0.00000000	      0.00000000	     35.52600525	     -4.17890255	     -2.49618412	    -25.12263008	      2.12010179	      0.00000000	      0.00000000	      8.17415540	     -1.31981767	      3.80809086
      1.29000000	    -12.14268010	     -0.45145817	     -1.40520585	      0.06345585	      0.96282906	      0.03994316	     11.99340096	      5.96492815	      6.85789421	    -16.69615298	     11.87101401	      0.00000000	      0.00000000	     35.41942165	     -3.94478303	     -2.33135972	    -22.29717875	      1.32036889	      0.00000000	      0.00000000	      8.22507609	     -1.54194000	      3.84563685
      1.30000000	    -12.33494829	     -0.64413019	     -1.58252310	      0.06240944	      0.96172055	      0.03984141	     11.73564396	      6.17123151	      6.86217271	    -16.64433472	     12.10438736	      0.00000000	      0.00000000	     35.67232650	     -4.17950170	     -2.12774950	    -20.13463959	      1.42133420	      0.00000000	      0.00000000	      8.33991666	     -1.22554537	      3.80788960
      1.31000000	    -12.46135271	     -0.40948801	     -1.76404488	      0.06160215	      0.96092140	      0.03954788	     11.35736983	      5.89302091	      6.96645409	    -16.48816031	     12.27274444	      0.00000000	      0.00000000	     35.55846793	     -3.99699796	     -1.97943242	    -17.47603394	      0.46741291	      0.00000000	      0.00000000	      8.41615128	     -1.39971490	      3.83735178
      1.32000000	    -12.65878598	     -0.56488699	     -1.95583003	      0.06070954	      0.95975742	      0.03931806	     11.09624924	      6.04465035	      6.95260576	    -16.43715172	     12.49434182	      0.00000000	      0.00000000	     35.80900200	     -4.19937941	     -1.82433160	    -15.57086807	      0.58963641	      0.00000000	      0.00000000	      8.54682105	     -1.11726124	      3.78970404
      1.33000000	    -12.85116987	     -0.46605439	     -2.17362448	      0.05996306	      0.95874998	      0.03896681	     10.79154471	      5.91686989	      7.09460647	    -16.30196121	     12.66103770	      0.00000000	      0.00000000	     35.85900290	     -4.15741711	     -1.54746628	    -13.41336117	      0.03816303	      0.00000000	      0.00000000	      8.69330521	     -1.12471035	      3.84096635
      1.34000000	    -12.91694096	     -0.21274070	     -2.38636016	      0.05942070	      0.95798854	      0.03852372	     10.38157234	      5.60576207	      7.19470011	    -16.25109088	     12.83998009	      0.00000000	      0.00000000	     35.65893187	     -3.98063552	     -1.57350174	    -11.15617603	     -1.04453664	      0.00000000	      0.00000000	      8.71347476	     -1.29995045	      3.87685215
